<?xml version="1.0" encoding="UTF-8"?>
<svg xmlns="http://www.w3.org/2000/svg" viewBox="0 0 700 580" width="700px" height="580px">
<defs>
    <style>
        .bg { fill: #fafafa; }
        .box { fill: #ffffff; stroke: #2563eb; stroke-width: 2; rx: 8; }
        .box-alt { fill: #dbeafe; stroke: #1e40af; stroke-width: 2; rx: 8; }
        .box-highlight { fill: #fef3c7; stroke: #d97706; stroke-width: 2; rx: 8; }
        .title-box { fill: #2563eb; stroke: none; rx: 4; }
        .arrow { fill: none; stroke: #64748b; stroke-width: 2; marker-end: url(#arrowhead); }
        .text { font-family: -apple-system, BlinkMacSystemFont, "Segoe UI", Roboto, sans-serif; font-size: 13px; fill: #334155; }
        .text-title { font-size: 15px; font-weight: bold; fill: #1e40af; }
        .text-header { font-size: 16px; font-weight: bold; fill: #ffffff; }
        .text-small { font-size: 11px; fill: #64748b; }
    </style>
    <marker id="arrowhead" markerWidth="10" markerHeight="7" refX="9" refY="3.5" orient="auto">
        <polygon points="0 0, 10 3.5, 0 7" fill="#64748b"/>
    </marker>
</defs>
<rect class="bg" width="100%" height="100%"/>

<rect class="title-box" x="20" y="15" width="660" height="35" rx="4"/>
<text class="text-header" x="350" y="38" text-anchor="middle">场景自动匹配流程</text>

<rect class="box-highlight" x="30" y="70" width="640" height="60" rx="6"/>
<text class="text-title" x="50" y="95">1. NLP语义解析</text>
<text class="text" x="50" y="115">关键词提取: "HR"、"面试"、"候选人" | 意图识别: 招聘相关活动</text>

<line class="arrow" x1="350" y1="130" x2="350" y2="160"/>

<rect class="box" x="30" y="160" width="640" height="60" rx="6"/>
<text class="text-title" x="50" y="185">2. 场景模板搜索</text>
<text class="text" x="50" y="205">Function调用: match_scene_by_activity | 参数: activityDesc="HR面试候选人"</text>

<line class="arrow" x1="350" y1="220" x2="350" y2="250"/>

<rect class="box" x="30" y="250" width="640" height="60" rx="6"/>
<text class="text-title" x="50" y="275">3. 语义匹配计算</text>
<text class="text" x="50" y="295">模板相似度: 0.95 | 能力匹配度: 0.92 | 参与者匹配度: 0.88</text>

<line class="arrow" x1="350" y1="310" x2="350" y2="340"/>

<rect class="box-alt" x="30" y="340" width="640" height="60" rx="6"/>
<text class="text-title" x="50" y="365">4. LLM智能推理</text>
<text class="text" x="50" y="385">综合分析匹配结果 | 推荐最佳场景模板 | 生成配置建议</text>

<line class="arrow" x1="350" y1="400" x2="350" y2="430"/>

<rect class="box-highlight" x="30" y="430" width="640" height="130" rx="6"/>
<text class="text-title" x="50" y="455">5. 结果输出</text>
<text class="text" x="50" y="480">{</text>
<text class="text" x="70" y="500">templateId: "scene-tpl-001",</text>
<text class="text" x="70" y="520">templateName: "招聘流程场景",</text>
<text class="text" x="70" y="540">matchScore: 0.95,</text>
<text class="text" x="50" y="550">}</text>

</svg>
